<?xml version="1.0" encoding="UTF-8"?>
<svg width="21px" height="21px" viewBox="0 0 21 21" version="1.1" xmlns="http://www.w3.org/2000/svg" xmlns:xlink="http://www.w3.org/1999/xlink">
    <title>未命名</title>
    <g id="页面-1" stroke="none" stroke-width="1" fill="none" fill-rule="evenodd">
        <g id="rub" transform="translate(0.862313, 0.492188)" fill-rule="nonzero">
            <path d="M12.6262369,20 C12.4640967,20 12.2990611,19.9629401 12.154293,19.8937616 L12.1456069,19.8888203 L12.1369208,19.8863496 C12.0326878,19.8567017 11.9371408,19.8295244 11.8415939,19.7726992 L0.413601146,13.7096973 C0.167495399,13.5762817 0.00245977981,13.297097 0.00245977981,13.0179123 L0.00245977981,13.0080296 C-0.0264938375,12.6942557 0.20223974,12.3854231 0.578636765,12.2371834 C2.44904045,11.6343422 4.12545489,10.7943175 5.56155431,9.74181594 C6.98607228,8.69919704 8.10947264,7.49351452 8.90569711,6.15935763 C9.06783737,5.89993823 9.33131529,5.76899321 9.68744478,5.76899321 C9.90749227,5.76899321 10.0899001,5.82334775 10.121749,5.83075973 L13.7930677,7.42433601 L18.3185181,0.412600371 C18.4574955,0.234712786 18.6543801,0.103767758 18.8628461,0.0518838789 L18.8686368,0.049413218 L18.8744276,0.0469425571 C18.9554977,0.0172946263 19.0423585,0 19.126324,0 C19.25372,0 19.3869066,0.0345892526 19.525884,0.103767758 L19.5316747,0.106238419 C19.7430361,0.197652872 19.8964903,0.353304509 19.9630836,0.546016059 C20.0325723,0.746139592 20.0036186,0.961087091 19.8791181,1.14885732 L15.379726,8.14082767 L17.9218536,9.24521309 C18.0318773,9.29462631 18.1592732,9.39345275 18.2721923,9.52192712 C18.3851114,9.68499074 18.4314372,9.81840642 18.4314372,9.96417542 C18.4140651,11.6911674 17.9479118,13.428042 17.0503497,15.1229154 C16.1556829,16.8103768 14.8730376,18.3767758 13.2371583,19.7801112 C13.0779134,19.9234095 12.8607612,20 12.6262369,20 Z" id="形状" fill="#00B9A2"></path>
            <path d="M11.0598462,14.6312539 C11.3001613,14.6312539 11.5259995,14.7127857 11.6968258,14.8585547 C12.0471646,15.162446 12.0471646,15.6590488 11.6968258,15.9629401 L10.3417965,17.1389747 L12.4380384,18.273008 L12.5017364,18.2137122 C13.9349404,16.9067326 15.0149104,15.4539839 15.7126926,13.8925263 L15.7474369,13.8134651 L7.92706485,9.94193947 L7.86626225,9.99629401 C6.40410458,11.2662137 4.73927158,12.2964793 2.92098441,13.0549722 L2.7327859,13.1340334 L4.55107306,14.1025324 L6.69074539,12.7881408 C6.83261811,12.6967264 7.00344445,12.6473132 7.18874761,12.6473132 C7.4840745,12.6473132 7.75913387,12.7733169 7.92706485,12.983323 L7.92996021,12.9857937 C8.06604221,13.1414453 8.11815872,13.3390982 8.08051902,13.5416924 C8.04287932,13.7492279 7.90390195,13.9394688 7.70412199,14.0580605 L6.20142925,14.9845584 L8.71460324,16.3113033 L10.425762,14.8585547 C10.593693,14.7127857 10.8195312,14.6312539 11.0598462,14.6312539 Z" id="路径" fill="#DEDEDE"></path>
            <path d="M9.99724849,7.64916615 C9.75114274,7.98270537 9.49924627,8.3285979 9.21260546,8.6695491 L9.13732605,8.7584929 L16.2917649,12.29895 L16.3265092,12.1680049 C16.4886495,11.5355158 16.5841964,10.9820877 16.6160454,10.4731316 L16.6189408,10.4088944 L10.0522604,7.57257566 L9.99724849,7.64916615 L9.99724849,7.64916615 Z" id="路径" fill="#DEDEDE"></path>
        </g>
    </g>
</svg>