<?xml version="1.0" standalone="no"?><!DOCTYPE svg PUBLIC "-//W3C//DTD SVG 1.1//EN" "http://www.w3.org/Graphics/SVG/1.1/DTD/svg11.dtd"><svg t="1738424594508" class="icon" viewBox="0 0 1024 1024" version="1.1" xmlns="http://www.w3.org/2000/svg" p-id="13985" xmlns:xlink="http://www.w3.org/1999/xlink" width="200" height="200"><path d="M594.1 909.3c-5.6 0-11.3-1.5-16.3-4.3l-0.3-0.2-0.3-0.1c-3.6-1.2-6.9-2.3-10.2-4.6L172.3 654.7c-8.5-5.4-14.2-16.7-14.2-28v-0.4c-1-12.7 6.9-25.2 19.9-31.2 64.6-24.4 122.5-58.4 172.1-101 49.2-42.2 88-91 115.5-145 5.6-10.5 14.7-15.8 27-15.8 7.6 0 13.9 2.2 15 2.5l126.8 64.5 156.3-283.8c4.8-7.2 11.6-12.5 18.8-14.6l0.2-0.1 0.2-0.1c2.8-1.2 5.8-1.9 8.7-1.9 4.4 0 9 1.4 13.8 4.2l0.2 0.1c7.3 3.7 12.6 10 14.9 17.8 2.4 8.1 1.4 16.8-2.9 24.4l-155.4 283L777 474c3.8 2 8.2 6 12.1 11.2 3.9 6.6 5.5 12 5.5 17.9-0.6 69.9-16.7 140.2-47.7 208.8-30.9 68.3-75.2 131.7-131.7 188.5-5.5 5.8-13 8.9-21.1 8.9zM540 692c8.3 0 16.1 3.3 22 9.2 12.1 12.3 12.1 32.4 0 44.7l-46.8 47.6 72.4 45.9 2.2-2.4c49.5-52.9 86.8-111.7 110.9-174.9l1.2-3.2-270.1-156.7-2.1 2.2c-50.5 51.4-108 93.1-170.8 123.8l-6.5 3.2 62.8 39.2 73.9-53.2c4.9-3.7 10.8-5.7 17.2-5.7 10.2 0 19.7 5.1 25.5 13.6l0.1 0.1c4.7 6.3 6.5 14.3 5.2 22.5-1.3 8.4-6.1 16.1-13 20.9l-51.9 37.5L459 760l59.1-58.8c5.8-5.9 13.6-9.2 21.9-9.2z m-36.7-282.6c-8.5 13.5-17.2 27.5-27.1 41.3l-2.6 3.6 247.1 143.3 1.2-5.3c5.6-25.6 8.9-48 10-68.6l0.1-2.6-226.8-114.8-1.9 3.1z" p-id="13986"></path></svg>